<?xml version="1.0" encoding="utf-8"?>
<!-- Generator: Adobe Illustrator 23.0.4, SVG Export Plug-In . SVG Version: 6.00 Build 0)  -->
<svg version="1.1" xmlns="http://www.w3.org/2000/svg" xmlns:xlink="http://www.w3.org/1999/xlink" x="0px" y="0px"
	 viewBox="0 0 652.51 78" style="enable-background:new 0 0 652.51 78;" xml:space="preserve">
<style type="text/css">
	.st0{fill:#3A3A3A;}
	.st1{fill:#2DBEC1;}
</style>
<g id="Layer_1">
</g>
<g id="Capa_2">
	<g>
		<g>
			<polygon class="st0" points="151.37,18.91 149.4,18.91 136.54,41.76 123.64,18.91 121.51,18.91 121.51,55.89 123.47,55.86 
				123.48,53.98 123.48,22.58 135.59,43.94 137.45,43.94 149.4,22.9 149.4,53.98 149.39,55.89 157.53,55.93 158.17,53.99 
				151.37,54.02 			"/>
			<polygon class="st0" points="515.94,18 513.98,18 501.12,40.84 488.21,18 486.08,18 486.08,54.97 488.05,54.95 488.05,53.06 
				488.05,21.67 500.16,43.02 502.02,43.02 513.98,21.98 513.98,53.06 513.96,54.97 531.45,55.02 531.33,53.08 515.94,53.11 			"/>
			<polygon class="st0" points="172.75,18.97 170.68,18.97 155.48,55.87 157.55,55.94 162.6,43.72 163.4,41.81 171.68,21.52 
				180.03,41.81 180.82,43.72 185.82,55.94 187.94,55.94 			"/>
			<polygon class="st0" points="467.68,18.07 465.61,18.07 450.42,54.98 452.49,55.05 457.54,42.83 458.33,40.92 466.62,20.62 
				474.96,40.92 475.76,42.83 480.75,55.05 482.88,55.05 			"/>
			<path class="st0" d="M191.38,55.94V18.97h2.07l25.82,25.07V18.97h1.96v36.97h-1.96V46.8l-25.92-25.29v34.43H191.38z"/>
			<path class="st0" d="M338.43,26.49c-1.35-2.28-3.16-4.1-5.44-5.45c-2.29-1.35-4.77-2.02-7.47-2.02h-13.65V56h2.01
				c0-0.67-0.05-1.97-0.05-1.97V20.99h11.64c2.34,0,4.51,0.58,6.51,1.75c2,1.17,3.59,2.75,4.75,4.73s1.75,4.14,1.75,6.48v7.12
				c0,2.34-0.59,4.5-1.75,6.48c-1.17,1.98-2.75,3.56-4.75,4.73c-2,1.17-4.17,1.75-6.51,1.75l0.05,1.97c2.7,0,5.18-0.67,7.47-2.02
				c2.28-1.35,4.1-3.16,5.44-5.45c1.35-2.29,2.02-4.77,2.02-7.46v-7.12C340.45,31.26,339.78,28.77,338.43,26.49z"/>
			<path class="st0" d="M347.92,18.99h26.03v1.97h-24.07v14.98v1.97V54h0v1.97h-1.97V18.99z"/>
			<path class="st0" d="M452.89,20.24v-1.97h-23.96v1.97h11v32.64c0.64,0,1.27,0,1.91,0V20.24H452.89z"/>
			<rect x="428.93" y="53.28" class="st0" width="23.96" height="1.97"/>
			<path class="st0" d="M544.52,54.63c0.1-0.05-0.22,0.19-0.11,0.15c0-0.81-0.16-0.84-0.16-1.76"/>
			<path class="st0" d="M550.91,25.73c-1.36-2.34-3.21-4.19-5.55-5.55c-2.34-1.36-4.89-2.04-7.65-2.04c-2.76,0-5.31,0.68-7.65,2.04
				c-2.33,1.37-4.19,3.21-5.55,5.55c-1.36,2.34-2.05,4.89-2.05,7.65v8.08c0,2.76,0.68,5.31,2.05,7.65c1.36,2.34,3.22,4.19,5.55,5.55
				c0.39,0.22,0.49,0.06,0.89,0.25c0.27,0.12,0.15-1.42-0.07-1.54c-0.1-0.05,0.55-0.18,0.46-0.24c-2.04-1.19-3.94-2.96-5.12-5
				c-1.19-2.03-1.78-4.26-1.78-6.67v-8.08c0-2.41,0.59-4.63,1.78-6.67c1.19-2.04,2.8-3.65,4.83-4.83c2.04-1.19,4.26-1.78,6.67-1.78
				c2.41,0,4.63,0.59,6.67,1.78c2.04,1.19,3.65,2.8,4.84,4.83c1.19,2.04,1.78,4.26,1.78,6.67v8.08c0,2.41-0.59,4.63-1.78,6.67
				c-1.19,2.04-2.8,3.65-4.84,4.83c-0.04,0.02-0.09,0.04-0.13,0.06c0,0.91,0.27,1.03,0.27,1.83c0.37-0.17,0.48,0.02,0.84-0.19
				c2.34-1.36,4.19-3.21,5.55-5.55c1.36-2.34,2.05-4.89,2.05-7.65v-8.08C552.96,30.62,552.27,28.07,550.91,25.73z"/>
			<rect x="186.06" y="54.11" class="st0" width="7.29" height="1.82"/>
			<path class="st0" d="M558.15,55.03V18.05h2.07l25.82,25.07V18.05H588v36.97h-1.96v-9.14L560.12,20.6v34.43H558.15z"/>
			<polygon class="st0" points="560.12,55.02 544.27,55.02 544.29,53.2 560.12,53.2 			"/>
			<polygon class="st0" points="271.3,18.97 269.34,18.97 256.48,41.82 243.57,18.97 241.45,18.97 241.45,55.95 243.41,55.92 
				243.41,54.03 243.41,22.64 255.52,43.99 257.38,43.99 269.34,22.96 269.34,54.03 269.32,55.95 277.46,55.99 278.1,54.05 
				271.3,54.08 			"/>
			<polygon class="st0" points="292.68,19.03 290.61,19.03 275.41,55.93 277.49,56 282.53,43.78 283.33,41.87 291.62,21.57 
				299.96,41.87 300.76,43.78 305.75,56 307.88,56 			"/>
			<rect x="305.99" y="54.17" class="st0" width="7.29" height="1.82"/>
			<rect x="480.77" y="53.2" class="st0" width="7.29" height="1.82"/>
			<rect x="326.2" y="54.09" class="st0" width="23.62" height="1.87"/>
			<path class="st0" d="M419.25,25.74c-1.35-2.28-3.16-4.1-5.44-5.45c-2.29-1.35-4.77-2.02-7.47-2.02h-13.65v36.97h2.01
				c0-0.67-0.05-1.97-0.05-1.97V20.24h11.64c2.34,0,4.51,0.58,6.51,1.75c2,1.17,3.59,2.75,4.75,4.73s1.75,4.14,1.75,6.48v7.12
				c0,2.34-0.59,4.5-1.75,6.48c-1.17,1.98-2.75,3.56-4.75,4.73s-4.17,1.75-6.51,1.75l0.05,1.97c2.7,0,5.18-0.67,7.47-2.02
				c2.28-1.35,4.1-3.16,5.44-5.45c1.35-2.29,2.02-4.77,2.02-7.46V33.2C421.27,30.51,420.6,28.02,419.25,25.74z"/>
			<rect x="407.02" y="53.34" class="st0" width="23.62" height="1.87"/>
			<path class="st0" d="M622.01,25.74c-1.35-2.28-3.16-4.1-5.44-5.45c-2.29-1.35-4.77-2.02-7.47-2.02h-13.65v36.97h2.01
				c0-0.67-0.05-1.97-0.05-1.97V20.24h11.64c2.34,0,4.51,0.58,6.51,1.75c2,1.17,3.59,2.75,4.75,4.73s1.75,4.14,1.75,6.48v7.12
				c0,2.34-0.59,4.5-1.75,6.48c-1.17,1.98-2.75,3.56-4.75,4.73s-4.12,1.64-6.46,1.64l-0.02,1.69c2.7,0,5.2-0.28,7.49-1.62
				c2.28-1.35,4.1-3.16,5.44-5.45c1.35-2.29,2.02-4.77,2.02-7.46V33.2C624.03,30.51,623.36,28.02,622.01,25.74z"/>
			<rect x="586.18" y="53.34" class="st0" width="11.19" height="1.87"/>
			<rect x="350.8" y="35.95" class="st0" width="23.07" height="1.92"/>
			<rect x="350.8" y="53.98" class="st0" width="23.07" height="1.92"/>
			<g>
				<g>
					<path class="st0" d="M633.24,35.75c-1.78-0.68-3.18-1.62-4.2-2.8c-1.02-1.18-1.52-2.71-1.52-4.58c0-1.93,0.51-3.63,1.52-5.1
						c1.02-1.47,2.45-2.6,4.3-3.4c1.85-0.8,3.99-1.2,6.43-1.2c2.33,0,4.48,0.49,6.43,1.47c1.95,0.98,3.49,2.36,4.62,4.13
						c1.13,1.77,1.7,3.78,1.7,6.05h-1.85c0-1.97-0.48-3.7-1.45-5.2s-2.28-2.66-3.95-3.47c-1.67-0.82-3.52-1.22-5.55-1.22
						c-1.8,0-3.48,0.28-5.05,0.85c-1.57,0.57-2.84,1.43-3.83,2.6c-0.98,1.17-1.48,2.63-1.48,4.4c0,1.6,0.47,2.87,1.4,3.83
						c0.93,0.95,2.15,1.68,3.65,2.18c1.5,0.5,3.6,1.03,6.3,1.6c2.73,0.57,4.86,1.11,6.38,1.62c1.52,0.52,2.8,1.38,3.85,2.58
						c1.05,1.2,1.57,2.88,1.57,5.05s-0.57,3.99-1.72,5.48c-1.15,1.48-2.68,2.59-4.58,3.32c-1.9,0.73-3.97,1.1-6.2,1.1
						c-1.66,0-3.2-0.19-4.62-0.56c-0.53-0.14-1.43-1.34-1.43-1.34s5.62,0.15,6.05,0.15c3.07,0,5.61-0.73,7.63-2.2
						c2.02-1.47,3.02-3.47,3.02-6c0-1.73-0.43-3.07-1.3-4c-0.87-0.93-1.96-1.61-3.27-2.02c-1.32-0.42-3.29-0.89-5.93-1.42
						C637.33,37.06,635.02,36.44,633.24,35.75z"/>
				</g>
				<polygon class="st0" points="640.39,53.97 640.57,55 606.51,55 606.51,53.13 634.6,53.13 				"/>
			</g>
		</g>
		<g>
			<g>
				<path class="st0" d="M75.76,23.9c-0.69-1.17-1.62-2.1-2.79-2.79c-1.17-0.69-2.45-1.03-3.83-1.03h-7v18.96h1.03
					c0-0.34-0.03-1.01-0.03-1.01V21.08h5.97c1.2,0,2.31,0.3,3.34,0.9c1.03,0.6,1.84,1.41,2.44,2.42c0.6,1.02,0.9,2.12,0.9,3.32v3.65
					c0,1.2-0.3,2.31-0.9,3.32c-0.6,1.02-1.41,1.83-2.44,2.42s-2.14,0.9-3.34,0.9l0.03,1.01c1.38,0,2.66-0.34,3.83-1.03
					c1.17-0.69,2.1-1.62,2.79-2.79c0.69-1.17,1.04-2.45,1.04-3.83v-3.65C76.8,26.34,76.46,25.07,75.76,23.9z"/>
				<polygon class="st0" points="41,20.02 40,20.02 33.4,31.73 26.78,20.02 25.7,20.02 25.7,38.98 26.7,38.96 26.71,38 26.71,21.9 
					32.91,32.85 33.87,32.85 40,22.06 40,38 39.99,38.98 44.16,39 44.49,38.01 41,38.02 				"/>
				<polygon class="st0" points="59.33,20.05 58.33,20.05 51.74,31.76 45.12,20.05 44.03,20.05 44.03,39 45.03,38.99 45.04,38.02 
					45.04,21.93 51.24,32.88 52.2,32.88 58.33,22.09 58.33,38.02 58.32,39 62.49,39.03 62.82,38.03 59.33,38.05 				"/>
			</g>
			<path class="st1" d="M79.91,0H25.07L0,26.48L51,78l50.51-51.33L79.91,0z M6.37,26.27L26.95,4.49L77.5,4.5l17.64,21.65
				L51.01,71.09L6.37,26.27z"/>
		</g>
	</g>
</g>
</svg>
